<svg width="19" height="20" viewBox="0 0 19 20" fill="none" xmlns="http://www.w3.org/2000/svg">
<path d="M3.25 8.33334C3.25 5.19084 3.25 3.61917 4.22667 2.64334C5.20333 1.66751 6.77417 1.66667 9.91667 1.66667H11.1667C14.3092 1.66667 15.8808 1.66667 16.8567 2.64334C17.8325 3.62001 17.8333 5.19084 17.8333 8.33334V11.6667C17.8333 14.8092 17.8333 16.3808 16.8567 17.3567C15.88 18.3325 14.3092 18.3333 11.1667 18.3333H9.91667C6.77417 18.3333 5.2025 18.3333 4.22667 17.3567C3.25083 16.38 3.25 14.8092 3.25 11.6667V8.33334Z" stroke="#FF6606" stroke-width="1.5" stroke-linecap="round" stroke-linejoin="round"/>
<path d="M12.2083 8.33333V10.4167C12.2083 10.7482 12.34 11.0661 12.5745 11.3006C12.8089 11.535 13.1268 11.6667 13.4583 11.6667C13.7899 11.6667 14.1078 11.535 14.3422 11.3006C14.5766 11.0661 14.7083 10.7482 14.7083 10.4167V10C14.7083 9.06138 14.3914 8.15025 13.8089 7.41424C13.2264 6.67822 12.4125 6.16045 11.499 5.9448C10.5855 5.72914 9.62589 5.82825 8.77574 6.22606C7.92559 6.62387 7.23466 7.29708 6.81489 8.13661C6.39513 8.97614 6.27112 9.93281 6.46296 10.8516C6.65481 11.7704 7.15126 12.5975 7.87189 13.199C8.59252 13.8004 9.49511 14.1409 10.4334 14.1653C11.3717 14.1896 12.2908 13.8965 13.0417 13.3333M3.25001 5H1.16667M3.25001 10H1.16667M3.25001 15H1.16667M12.2083 10C12.2083 10.442 12.0327 10.866 11.7202 11.1785C11.4076 11.4911 10.9837 11.6667 10.5417 11.6667C10.0996 11.6667 9.67572 11.4911 9.36316 11.1785C9.0506 10.866 8.87501 10.442 8.87501 10C8.87501 9.55797 9.0506 9.13405 9.36316 8.82149C9.67572 8.50893 10.0996 8.33333 10.5417 8.33333C10.9837 8.33333 11.4076 8.50893 11.7202 8.82149C12.0327 9.13405 12.2083 9.55797 12.2083 10Z" stroke="#FF6606" stroke-width="1.5" stroke-linecap="round" stroke-linejoin="round"/>
</svg>
