<svg width="20" height="20" viewBox="0 0 20 20" fill="none" xmlns="http://www.w3.org/2000/svg">
<path d="M1 6V11C1 14.771 1.001 16.656 2.172 17.828C3.343 19 5.229 19 9 19H11C14.771 19 16.656 18.999 17.828 17.828C19 16.657 19 14.771 19 11V6M1 6H19M1 6L1.865 4.077C2.537 2.585 2.872 1.84 3.552 1.42C4.232 1 5.105 1 6.85 1H13.15C14.895 1 15.767 1 16.448 1.42C17.128 1.84 17.463 2.585 18.135 4.077L19 6M10 6V1" stroke="#FF6606" stroke-width="1.5" stroke-linecap="round" stroke-linejoin="round"/>
<path d="M6.5 11.5H12C12.5304 11.5 13.0391 11.7107 13.4142 12.0858C13.7893 12.4609 14 12.9696 14 13.5C14 14.0304 13.7893 14.5391 13.4142 14.9142C13.0391 15.2893 12.5304 15.5 12 15.5H11M8 9.5L6 11.5L8 13.5" stroke="#FF6606" stroke-width="1.5" stroke-linecap="round" stroke-linejoin="round"/>
</svg>
