<svg width="21" height="18" viewBox="0 0 21 18" fill="none" xmlns="http://www.w3.org/2000/svg">
<path d="M0.875 0.75H2.47917L3.16667 3.5M3.16667 3.5L5.45833 12.6667H17.375L19.6667 3.5H3.16667Z" stroke="black" stroke-linecap="round" stroke-linejoin="round"/>
<path d="M5.45834 17.25C6.21773 17.25 6.83334 16.6344 6.83334 15.875C6.83334 15.1156 6.21773 14.5 5.45834 14.5C4.69894 14.5 4.08334 15.1156 4.08334 15.875C4.08334 16.6344 4.69894 17.25 5.45834 17.25Z" stroke="black" stroke-linecap="round" stroke-linejoin="round"/>
<path d="M17.375 17.25C18.1344 17.25 18.75 16.6344 18.75 15.875C18.75 15.1156 18.1344 14.5 17.375 14.5C16.6156 14.5 16 15.1156 16 15.875C16 16.6344 16.6156 17.25 17.375 17.25Z" stroke="black" stroke-linecap="round" stroke-linejoin="round"/>
</svg>
