<svg width="19" height="18" viewBox="0 0 19 18" fill="none" xmlns="http://www.w3.org/2000/svg">
<path d="M9.5 17.25C11.1317 17.25 12.7267 16.7662 14.0835 15.8596C15.4402 14.9531 16.4976 13.6646 17.122 12.1571C17.7464 10.6497 17.9098 8.99085 17.5915 7.39051C17.2732 5.79017 16.4874 4.32016 15.3336 3.16637C14.1798 2.01259 12.7098 1.22685 11.1095 0.908525C9.50915 0.590197 7.85035 0.753575 6.34286 1.378C4.83537 2.00242 3.5469 3.05984 2.64038 4.41655C1.73385 5.77325 1.25 7.36831 1.25 9C1.25 10.32 1.55983 11.5667 2.11167 12.6731C2.52692 13.5082 1.94942 14.6348 1.72942 15.457C1.68068 15.6389 1.68067 15.8303 1.72939 16.0122C1.77812 16.1941 1.87385 16.3599 2.00698 16.493C2.14011 16.6262 2.30594 16.7219 2.4878 16.7706C2.66966 16.8193 2.86114 16.8193 3.043 16.7706C3.86525 16.5506 4.99183 15.9731 5.82692 16.3893C6.96836 16.956 8.22559 17.2506 9.5 17.25Z" stroke="black" stroke-width="1.5" stroke-linecap="round" stroke-linejoin="round"/>
</svg>
