<svg width="19" height="16" viewBox="0 0 19 16" fill="none" xmlns="http://www.w3.org/2000/svg">
<path d="M9.5 2.58334L9.05 3.01667C9.10831 3.07716 9.17821 3.12527 9.25552 3.15814C9.33284 3.191 9.41599 3.20794 9.5 3.20794C9.58402 3.20794 9.66717 3.191 9.74449 3.15814C9.8218 3.12527 9.8917 3.07716 9.95 3.01667L9.5 2.58334ZM7.355 13.2683C6.09167 12.2725 4.71084 11.3 3.61501 10.0667C2.54167 8.85667 1.79167 7.44584 1.79167 5.61417H0.541672C0.541672 7.83584 1.46667 9.53084 2.68084 10.8967C3.8725 12.2383 5.3925 13.3133 6.58084 14.25L7.355 13.2683ZM1.79167 5.61417C1.79167 3.8225 2.80417 2.31917 4.18667 1.68667C5.53 1.0725 7.335 1.235 9.05 3.01667L9.95 2.15084C7.91667 0.0366704 5.55334 -0.312496 3.66667 0.550004C1.82167 1.39417 0.541672 3.35417 0.541672 5.61417H1.79167ZM6.58084 14.25C7.00834 14.5867 7.46667 14.945 7.93084 15.2167C8.395 15.4883 8.925 15.7083 9.5 15.7083V14.4583C9.24167 14.4583 8.93834 14.3583 8.56167 14.1375C8.18417 13.9175 7.79334 13.6142 7.355 13.2683L6.58084 14.25ZM12.4192 14.25C13.6075 13.3125 15.1275 12.2392 16.3192 10.8967C17.5333 9.53 18.4583 7.83584 18.4583 5.61417H17.2083C17.2083 7.44584 16.4583 8.85667 15.385 10.0667C14.2892 11.3 12.9083 12.2725 11.645 13.2683L12.4192 14.25ZM18.4583 5.61417C18.4583 3.35417 17.1792 1.39417 15.3333 0.550004C13.4467 -0.312496 11.085 0.0366704 9.05 2.15L9.95 3.01667C11.665 1.23584 13.47 1.0725 14.8133 1.68667C16.1958 2.31917 17.2083 3.82167 17.2083 5.61417H18.4583ZM11.645 13.2683C11.2067 13.6142 10.8158 13.9175 10.4383 14.1375C10.0608 14.3575 9.75834 14.4583 9.5 14.4583V15.7083C10.075 15.7083 10.605 15.4875 11.0692 15.2167C11.5342 14.945 11.9917 14.5867 12.4192 14.25L11.645 13.2683Z" fill="#FF6606"/>
</svg>
