<svg width="25" height="24" viewBox="0 0 25 24" fill="none" xmlns="http://www.w3.org/2000/svg">
<g clip-path="url(#clip0_57_282)">
<path d="M12.5 1.33333C10.3903 1.33333 8.32804 1.95892 6.57392 3.13099C4.81979 4.30305 3.45262 5.96896 2.64528 7.91804C1.83795 9.86712 1.62671 12.0118 2.03829 14.081C2.44987 16.1501 3.46577 18.0507 4.95753 19.5425C6.44929 21.0342 8.34991 22.0501 10.419 22.4617C12.4882 22.8733 14.6329 22.662 16.582 21.8547C18.531 21.0474 20.1969 19.6802 21.369 17.9261C22.5411 16.172 23.1667 14.1097 23.1667 12C23.1667 9.17102 22.0429 6.45791 20.0425 4.45752C18.0421 2.45713 15.329 1.33333 12.5 1.33333ZM12.5 21.3333C10.654 21.3333 8.84954 20.7859 7.31468 19.7604C5.77982 18.7348 4.58354 17.2772 3.87712 15.5717C3.17071 13.8663 2.98588 11.9896 3.346 10.1792C3.70613 8.36866 4.59505 6.70562 5.90034 5.40033C7.20563 4.09504 8.86867 3.20613 10.6792 2.846C12.4896 2.48587 14.3663 2.6707 16.0717 3.37712C17.7772 4.08354 19.2348 5.27981 20.2604 6.81467C21.2859 8.34953 21.8333 10.154 21.8333 12C21.8333 14.4753 20.85 16.8493 19.0997 18.5997C17.3493 20.35 14.9754 21.3333 12.5 21.3333Z" fill="#FF6606"/>
<path d="M12.6933 5.94667C11.9709 5.93473 11.2547 6.08205 10.5956 6.37817C9.93658 6.67429 9.35082 7.11193 8.88 7.66C8.81459 7.72062 8.76201 7.79375 8.72536 7.87505C8.68872 7.95635 8.66876 8.04418 8.66667 8.13334C8.66662 8.21559 8.68313 8.29702 8.71519 8.37276C8.74726 8.44851 8.79423 8.51703 8.85332 8.57426C8.91241 8.63148 8.9824 8.67623 9.05914 8.70585C9.13588 8.73547 9.21779 8.74935 9.3 8.74667C9.47612 8.74231 9.64452 8.67352 9.77333 8.55334C10.1296 8.13579 10.5722 7.80039 11.0705 7.57022C11.5688 7.34005 12.1111 7.22057 12.66 7.22C14.2333 7.22 15.2133 8.23334 15.2133 9.49334V9.52667C15.2133 11 14.04 11.82 12.1867 11.96C12.1116 11.9629 12.038 11.9816 11.9707 12.0149C11.9034 12.0482 11.8439 12.0954 11.7961 12.1533C11.7482 12.2112 11.7132 12.2785 11.6932 12.3509C11.6732 12.4233 11.6687 12.4991 11.68 12.5733C11.68 12.5733 11.68 14.12 11.68 14.4067C11.6966 14.5717 11.7741 14.7246 11.8973 14.8355C12.0206 14.9465 12.1808 15.0075 12.3467 15.0067H12.42C12.585 14.9901 12.7379 14.9126 12.8489 14.7893C12.9598 14.666 13.0208 14.5058 13.02 14.34V12.9667C15.02 12.6867 16.64 11.6333 16.64 9.44667V9.41334C16.62 7.41334 15.06 5.94667 12.6933 5.94667Z" fill="#FF6606"/>
<path d="M12.3533 18.3C12.8136 18.3 13.1867 17.9269 13.1867 17.4667C13.1867 17.0064 12.8136 16.6333 12.3533 16.6333C11.8931 16.6333 11.52 17.0064 11.52 17.4667C11.52 17.9269 11.8931 18.3 12.3533 18.3Z" fill="#FF6606"/>
</g>
<defs>
<clipPath id="clip0_57_282">
<rect width="24" height="24" fill="white" transform="translate(0.5)"/>
</clipPath>
</defs>
</svg>
