<svg width="42" height="42" viewBox="0 0 42 42" fill="none" xmlns="http://www.w3.org/2000/svg">
<path d="M33.28 11.91C33.161 5.5735 27.9685 0.452499 21.6035 0.452499C15.2715 0.452499 10.0985 5.516 9.93151 11.8095C9.74396 11.8407 9.57352 11.9373 9.45042 12.0822C9.32732 12.2271 9.25951 12.4109 9.25901 12.601V19.376C9.25901 19.8195 9.62151 20.182 10.065 20.182H10.871C11.2955 20.182 11.648 19.8485 11.672 19.4285C12.473 20.201 13.5265 21.1115 14.6805 21.8505C16.8355 24.721 19.5865 26.714 21.47 26.714C24.531 26.714 29.8805 21.436 31.2635 15.7V19.376C31.2635 19.8195 31.626 20.182 32.0695 20.182H32.8755C33.319 20.182 33.6815 19.8195 33.6815 19.376V12.601C33.6809 12.4608 33.6435 12.3231 33.573 12.2019C33.5026 12.0806 33.4015 11.98 33.28 11.91ZM11.6765 18.0795V15.7195C11.991 17.021 12.511 18.299 13.164 19.4955C12.6478 19.0454 12.1515 18.5729 11.6765 18.0795ZM21.4695 25.761C20.325 25.761 18.599 24.6835 16.9495 22.986C17.439 23.1563 17.9487 23.262 18.4655 23.3005C18.5594 23.5586 18.7308 23.7814 18.9561 23.9385C19.1815 24.0956 19.4498 24.1792 19.7245 24.178H23.615C23.9708 24.1779 24.312 24.0368 24.564 23.7857C24.816 23.5345 24.9582 23.1938 24.9595 22.838C24.9582 22.4822 24.816 22.1415 24.564 21.8903C24.312 21.6392 23.9708 21.4981 23.615 21.498H19.7245C19.4553 21.4981 19.1923 21.579 18.9696 21.7303C18.7469 21.8816 18.5748 22.0962 18.4755 22.3465C17.474 22.2655 16.4205 21.8125 15.429 21.202C14.0845 19.409 12.959 17.2495 12.511 15.0325C13.6125 14.3125 15.863 8.882 18.099 8.882C19.5245 8.882 21.813 11.4855 24.3595 12.253C26.872 13.016 29.528 12.5725 30.639 12.782C30.644 12.8585 30.644 12.9345 30.644 13.011C30.643 19.2285 24.278 25.761 21.4695 25.761ZM32.069 11.7955C31.8735 11.7955 31.697 11.8625 31.559 11.986C31.1345 6.2025 27.1005 2.25 21.4695 2.25C15.834 2.25 11.8 6.2025 11.3755 11.9815C11.2382 11.8648 11.0647 11.7991 10.8845 11.7955C11.061 6.036 15.805 1.406 21.603 1.406C27.4055 1.406 32.145 6.0355 32.3215 11.7955H32.069ZM40.4365 41.5475H1.56351C1.56351 41.5475 -3.14249 32.7935 12.482 28.469C14.747 26.7 15.252 26.1615 15.252 26.1615L19.5765 39.593L20.1725 33.571L19.2 33.0035C19.2 33.0035 21.088 30.8005 21.1455 30.486L23.229 32.9415L22.223 33.509L22.9285 40.1365L26.7475 26.1615C26.7475 26.1615 27.253 26.7005 29.5175 28.469C45.1425 32.7935 40.4365 41.5475 40.4365 41.5475Z" fill="#FF6606"/>
</svg>
