<svg width="18" height="18" viewBox="0 0 18 18" fill="none" xmlns="http://www.w3.org/2000/svg">
<path d="M5.33334 7.16667V5.33333C5.33334 2.80242 6.46909 0.75 9.00001 0.75C11.5309 0.75 12.6667 2.80242 12.6667 5.33333V7.16667M1.20834 14.3167V10.1C1.20834 9.07333 1.20834 8.56 1.40818 8.16858C1.58379 7.82329 1.86426 7.5425 2.20934 7.3665C2.60168 7.16758 3.11501 7.16758 4.14168 7.16758H13.8583C14.885 7.16758 15.3983 7.16758 15.7907 7.3665C16.1356 7.54227 16.4161 7.82272 16.5918 8.16767C16.7917 8.56 16.7917 9.07333 16.7917 10.1V14.3167C16.7917 15.3433 16.7917 15.8567 16.5918 16.249C16.4161 16.5939 16.1356 16.8744 15.7907 17.0502C15.3983 17.25 14.885 17.25 13.8583 17.25H4.14168C3.11501 17.25 2.60168 17.25 2.20934 17.0502C1.8644 16.8744 1.58394 16.5939 1.40818 16.249C1.20834 15.8576 1.20834 15.3442 1.20834 14.3167Z" stroke="#FF6606" stroke-width="1.5" stroke-linecap="round" stroke-linejoin="round"/>
</svg>
