<svg width="19" height="16" viewBox="0 0 19 16" fill="none" xmlns="http://www.w3.org/2000/svg">
<path fill-rule="evenodd" clip-rule="evenodd" d="M18.5 2H0.5V0.5H18.5V2ZM11.684 5.0075C10.7089 5.0075 9.7738 5.39484 9.08432 6.08432C8.39484 6.7738 8.0075 7.70893 8.0075 8.684C8.0075 9.65907 8.39484 10.5942 9.08432 11.2837C9.7738 11.9732 10.7089 12.3605 11.684 12.3605C12.6591 12.3605 13.5942 11.9732 14.2837 11.2837C14.9732 10.5942 15.3605 9.65907 15.3605 8.684C15.3605 7.70893 14.9732 6.7738 14.2837 6.08432C13.5942 5.39484 12.6591 5.0075 11.684 5.0075ZM6.5075 8.6825C6.50775 7.8631 6.70251 7.05547 7.07576 6.32602C7.44902 5.59657 7.99011 4.96616 8.65453 4.48662C9.31895 4.00708 10.0877 3.69211 10.8976 3.56763C11.7075 3.44315 12.5354 3.51271 13.3131 3.77059C14.0909 4.02847 14.7963 4.4673 15.3714 5.05099C15.9465 5.63467 16.3748 6.34654 16.6211 7.12805C16.8674 7.90955 16.9247 8.73836 16.7882 9.54631C16.6517 10.3543 16.3254 11.1183 15.836 11.7755L18.4115 14.3495L17.3495 15.41L14.7755 12.836C14.0057 13.4092 13.0916 13.7571 12.1354 13.8408C11.1793 13.9245 10.2187 13.7407 9.36095 13.31C8.50321 12.8793 7.78212 12.2185 7.27823 11.4016C6.77434 10.5847 6.50749 9.64382 6.5075 8.684M5 8.75H0.5V7.25H5V8.75ZM6.5 15.5H0.5V14H6.5V15.5Z" fill="#FF6606"/>
</svg>
