<svg width="18" height="18" viewBox="0 0 18 18" fill="none" xmlns="http://www.w3.org/2000/svg">
<path d="M9 9.708L12.246 12.954C12.3393 13.0473 12.454 13.0973 12.59 13.104C12.726 13.1107 12.8473 13.0607 12.954 12.954C13.0607 12.8473 13.114 12.7293 13.114 12.6C13.114 12.4707 13.0607 12.3527 12.954 12.246L9.708 9L12.954 5.754C13.0473 5.66067 13.0973 5.546 13.104 5.41C13.1107 5.274 13.0607 5.15267 12.954 5.046C12.8473 4.93933 12.7293 4.886 12.6 4.886C12.4707 4.886 12.3527 4.93933 12.246 5.046L9 8.292L5.754 5.046C5.66067 4.95267 5.546 4.90267 5.41 4.896C5.274 4.88933 5.15267 4.93933 5.046 5.046C4.93933 5.15267 4.886 5.27067 4.886 5.4C4.886 5.52933 4.93933 5.64733 5.046 5.754L8.292 9L5.046 12.246C4.95267 12.3393 4.90267 12.4543 4.896 12.591C4.88933 12.7263 4.93933 12.8473 5.046 12.954C5.15267 13.0607 5.27067 13.114 5.4 13.114C5.52933 13.114 5.64733 13.0607 5.754 12.954L9 9.708ZM9.003 18C7.75833 18 6.58833 17.764 5.493 17.292C4.39767 16.8193 3.44467 16.178 2.634 15.368C1.82333 14.558 1.18167 13.606 0.709 12.512C0.236333 11.418 0 10.2483 0 9.003C0 7.75767 0.236333 6.58767 0.709 5.493C1.181 4.39767 1.82133 3.44467 2.63 2.634C3.43867 1.82333 4.391 1.18167 5.487 0.709C6.583 0.236333 7.753 0 8.997 0C10.241 0 11.411 0.236333 12.507 0.709C13.6023 1.181 14.5553 1.82167 15.366 2.631C16.1767 3.44033 16.8183 4.39267 17.291 5.488C17.7637 6.58333 18 7.753 18 8.997C18 10.241 17.764 11.411 17.292 12.507C16.82 13.603 16.1787 14.556 15.368 15.366C14.5573 16.176 13.6053 16.8177 12.512 17.291C11.4187 17.7643 10.249 18.0007 9.003 18ZM9 17C11.2333 17 13.125 16.225 14.675 14.675C16.225 13.125 17 11.2333 17 9C17 6.76667 16.225 4.875 14.675 3.325C13.125 1.775 11.2333 1 9 1C6.76667 1 4.875 1.775 3.325 3.325C1.775 4.875 1 6.76667 1 9C1 11.2333 1.775 13.125 3.325 14.675C4.875 16.225 6.76667 17 9 17Z" fill="#FF6606"/>
</svg>
