<svg width="20" height="23" viewBox="0 0 20 23" fill="none" xmlns="http://www.w3.org/2000/svg">
<path d="M1 8.60998V14.38C1 16.5 1 16.5 3 17.85L8.5 21.03C9.33 21.51 10.68 21.51 11.5 21.03L17 17.85C19 16.5 19 16.5 19 14.39V8.60998C19 6.49998 19 6.49999 17 5.14999L11.5 1.96999C10.68 1.48999 9.33 1.48999 8.5 1.96999L3 5.14999C1 6.49999 1 6.49998 1 8.60998Z" stroke="#292D32" stroke-width="1.5" stroke-linecap="round" stroke-linejoin="round"/>
<path d="M10 14.5C11.6569 14.5 13 13.1568 13 11.5C13 9.84313 11.6569 8.49999 10 8.49999C8.34315 8.49999 7 9.84313 7 11.5C7 13.1568 8.34315 14.5 10 14.5Z" stroke="#292D32" stroke-width="1.5" stroke-linecap="round" stroke-linejoin="round"/>
</svg>
