<svg width="18" height="20" viewBox="0 0 18 20" fill="none" xmlns="http://www.w3.org/2000/svg">
<path d="M1.50833 9.35001V13.0917C1.50833 16.8333 3.00833 18.3333 6.74999 18.3333H11.2417C14.9833 18.3333 16.4833 16.8333 16.4833 13.0917V9.35001M8.99999 10C10.525 10 11.65 8.75834 11.5 7.23334L10.95 1.66667H7.05833L6.49999 7.23334C6.34999 8.75834 7.47499 10 8.99999 10ZM14.2583 10C15.9417 10 17.175 8.63334 17.0083 6.95834L16.775 4.66667C16.475 2.50001 15.6417 1.66667 13.4583 1.66667H10.9167L11.5 7.50834C11.6417 8.88334 12.8833 10 14.2583 10ZM3.69999 10C5.07499 10 6.31666 8.88334 6.44999 7.50834L7.03333 1.66667H4.49166C2.30833 1.66667 1.47499 2.50001 1.17499 4.66667L0.949994 6.95834C0.783327 8.63334 2.01666 10 3.69999 10ZM8.99999 14.1667C7.60833 14.1667 6.91666 14.8583 6.91666 16.25V18.3333H11.0833V16.25C11.0833 14.8583 10.3917 14.1667 8.99999 14.1667Z" stroke="#424242" stroke-width="1.5" stroke-linecap="round" stroke-linejoin="round"/>
</svg>
